<svg width="28px" height="28px" viewBox="0 0 28 28" version="1.1" xmlns="http://www.w3.org/2000/svg" xmlns:xlink="http://www.w3.org/1999/xlink">
    <g id="Page-1" stroke="none" stroke-width="1" fill="none" fill-rule="evenodd">
        <g id="add-icon" fill="#DECD1D" fill-rule="nonzero">
            <path d="M26,12 L16,12 L16,2 C16,0.896 15.104,0 14,0 C12.896,0 12,0.896 12,2 L12,12 L2,12 C0.896,12 0,12.896 0,14 C0,15.104 0.896,16 2,16 L12,16 L12,26 C12,27.104 12.896,28 14,28 C15.104,28 16,27.104 16,26 L16,16 L26,16 C27.104,16 28,15.104 28,14 C28,12.896 27.104,12 26,12 Z" id="Path"></path>
        </g>
    </g>
</svg>
