<svg width="64" height="64" xmlns="http://www.w3.org/2000/svg">
<g>
<title>Layer 1</title>
<path fill-rule="nonzero" fill="#ffffff" d="M8.932773,0.5 C4.238353,0.5 0.432773,4.30558 0.432773,9 C0.432773,13.69442 4.238353,17.5 8.932773,17.5 C13.627193,17.5 17.432773,13.69442 17.432773,9 C17.432773,4.30558 13.627193,0.5 8.932773,0.5 L8.932773,0.5 Z" id="Oval"></path>
<path fill-rule="nonzero" fill="#ffffff" d="M9,20.5 C4.30558,20.5 0.5,24.30558 0.5,29 C0.5,33.69442 4.30558,37.5 9,37.5 C13.69442,37.5 17.5,33.69442 17.5,29 C17.5,24.30558 13.69442,20.5 9,20.5 Z" id="Oval"></path>
<path fill-rule="nonzero" fill="#ffffff" d="M9,40.5 C4.30558,40.5 0.5,44.30558 0.5,49 C0.5,53.69442 4.30558,57.5 9,57.5 C13.69442,57.5 17.5,53.69442 17.5,49 C17.5,44.30558 13.69442,40.5 9,40.5 Z" id="Oval"></path> 
 </g>
</svg>
